<?xml version="1.0" encoding="UTF-8" standalone="no"?>
<!-- Created with Inkscape (http://www.inkscape.org/) -->
<svg width="210mm" height="320mm" viewBox="0 0 210 297" version="1.1" id="svg5" inkscape:version="1.1.1 (3bf5ae0d25, 2021-09-20)" sodipodi:docname="mavenmoduleset.svg" xmlns:inkscape="http://www.inkscape.org/namespaces/inkscape" xmlns:sodipodi="http://sodipodi.sourceforge.net/DTD/sodipodi-0.dtd" xmlns:xlink="http://www.w3.org/1999/xlink" xmlns="http://www.w3.org/2000/svg" xmlns:svg="http://www.w3.org/2000/svg">
	<sodipodi:namedview id="namedview7" pagecolor="#ffffff" bordercolor="#666666" borderopacity="1.0" inkscape:pageshadow="2" inkscape:pageopacity="0.0" inkscape:pagecheckerboard="0" inkscape:document-units="mm" showgrid="false" inkscape:zoom="0.73406285" inkscape:cx="397.10496" inkscape:cy="779.90597" inkscape:window-width="1920" inkscape:window-height="1009" inkscape:window-x="1912" inkscape:window-y="-8" inkscape:window-maximized="1" inkscape:current-layer="layer1" />
	<defs id="defs2">
		<ellipse id="SVGID_1_" cx="1250" cy="884.8" rx="922.67" ry="938.6" /> </defs>
	<g inkscape:label="Ebene 1" inkscape:groupmode="layer" id="layer1">
		<g id="g85" transform="matrix(0.14174994,0,0,0.14459599,-77.541801,17.398202)">
			<defs id="defs12">
				<ellipse id="ellipse94" cx="1250" cy="884.79999" rx="922.66998" ry="938.59998" /> </defs>
			<clipPath id="SVGID_2_">
				<use xlink:href="#SVGID_1_" style="overflow:visible" id="use14" x="0" y="0" width="100%" height="100%" /> </clipPath>
			<g class="st0" clip-path="url(#SVGID_2_)" id="g83">
				<path class="st1" d="m 1682.2,522.44 c 0,0 -93.46,-125.41 -310.51,-172.58 -86.77,-18.86 -176.58,-18.07 -262.64,3.83 -89.35,22.74 -206.38,70.17 -287.08,168.74 0,0 -268.5,274.75 -114.61,551.5 5.47,9.83 10.22,20.03 14.33,30.49 42.33,107.63 226.5,635.5 -102.99,933.53 0,0 202.75,335.25 630.19,328.55 0,0 413.49,17.3 631.69,-323.95 0,0 -167.97,-111.33 -191.97,-398.17 0,0 -53.64,-325.37 76.19,-516.02 35.47,-52.09 57.33,-111.14 64.61,-173.19 13.07,-111.22 -1.82,-276.63 -147.21,-432.73 z" id="path17" />
				<path class="st2" d="M 609.13,1259.32 C 578,1280 531.69,1323.95 486.45,1416.24 398.1,1596.49 383.69,1805 446.91,1995.52 c 14.01,42.21 32.23,86.45 55.85,131.59 0,0 287.12,-154.44 304.5,-487.35 0,0 55.99,-368.9 -98.38,-407.79 -29.02,-7.32 -74.81,10.79 -99.75,27.35 z" id="path19" />
				<path class="st3" d="m 1023.98,1428.99 c 0,0 -77.57,-19.25 20.79,-75.75 0,0 59.03,-28.75 169.66,-39.4 23.99,-2.31 48.13,-2.6 72.15,-0.6 57.77,4.79 165.96,21.1 208.39,76.49 0,0 19.53,20.85 -25.11,39.27 l 83.86,26.72 c 36.27,11.56 68.19,34.57 88.97,66.46 1.23,1.89 2.44,3.82 3.63,5.82 h -79.64 l 70.75,68.21 c 9.39,9.05 17.56,19.33 23.8,30.77 13.67,25.05 22.35,61.51 -48.52,54.81 0,0 75.57,80.92 64.09,136.52 -2.06,9.97 -11.09,16.9 -21.25,16.18 -6.2,-0.44 -14.02,-1.61 -22.9,-4.29 -5.97,-1.81 -12.13,2.35 -12.43,8.57 -0.58,12.14 -0.16,32.94 5.44,61.85 2.53,13.07 3.45,26.42 2.03,39.66 -2.92,27.12 -13.7,62.39 -51.81,35.32 0,0 -15.07,188.34 -88.73,122.21 0,0 -13.19,70.16 -39.2,96.76 -9.68,9.89 -25.25,10.57 -36.65,2.73 -14.65,-10.07 -53.74,-27.72 -108.86,17.42 0,0 -46.84,45.24 -104.13,3.17 -2.41,-1.77 -4.65,-3.76 -6.88,-5.75 -12.53,-11.23 -65.94,-53.44 -118.53,-9.98 -4.97,4.11 -12.12,4.13 -17.09,0.02 -10.8,-8.91 -27.8,-32.82 -43.55,-96.84 0,0 -3.78,-15.11 -23.93,1.15 -6.64,5.36 -16.2,5.87 -23.14,0.91 -14.17,-10.12 -33.27,-40.77 -42.77,-129.85 0,0 -37.17,27.65 -52.14,-16.53 -3.29,-9.73 -4.28,-20.06 -3.47,-30.3 1.21,-15.37 4.17,-43.33 10.97,-69.38 0,0 13.67,-52.33 -29.91,-32.13 -5.82,2.7 -12.58,3.34 -18.52,0.91 -7.96,-3.25 -15.92,-12.04 -13.07,-34.84 1.81,-14.49 7.33,-28.28 15.28,-40.53 l 48.73,-75.05 c 0,0 -60.14,19.34 -54.36,-25.79 1.07,-8.37 4.2,-16.31 8.55,-23.55 10.33,-17.21 37.37,-55.63 93.53,-98.83 0,0 -62.81,12.43 -52.73,-25.6 2.74,-10.34 9.43,-19.18 18.11,-25.43 16.19,-11.67 52.98,-31.86 130.59,-51.51 z" id="path21" />
				<path class="st2" d="m 1890.87,1259.32 c 31.13,20.68 77.44,64.63 122.68,156.92 88.35,180.25 102.76,388.76 39.54,579.28 -14.01,42.21 -32.23,86.45 -55.85,131.59 0,0 -302.82,-139.83 -311.53,-487.11 0,0 -33.93,-357.4 120.43,-396.3 29.03,-7.32 59.79,-0.94 84.73,15.62 z" id="path23" />
				<path class="st4" d="m 686.68,1030.8 c 0,0 -10.19,2.78 -21.81,12.52 -11.67,9.78 -18.13,24.47 -18.13,39.71 v 160.22 c 0,0 47.43,45.67 223.22,62.97 0,0 404.58,35.72 667.42,8.93 0,0 69.2,331.48 286.84,444.21 l 155.14,-107.15 c 0,0 -159.6,-90.12 -228.8,-238.29 0,0 94.03,56.24 228.52,46.2 l 130.89,-174.79 c 0,0 -207.62,0.24 -267.33,-24.87 0,0 0.4,-0.21 1.11,-0.63 12.82,-7.66 20.52,-21.66 20.52,-36.6 v -148.81 c 0,-15.53 -9.58,-29.58 -24.2,-34.83 -7.28,-2.61 -16.23,-4.65 -28.34,-5.47 0,0 -11.87,33.53 -26.41,59.5 0,0 -417.09,98.5 -1070.81,-5.72 0,0 -10.28,-19.4 -13.47,-25.76 0,-0.01 -10.13,-20.47 -14.36,-31.34 z" id="path25" />
				<g id="g31">
					<path class="st2" d="M 1214.27,596.52 V 473.61 c 0,0 -141.52,-118.25 -556.34,-76.31 -6.82,0.69 -12.03,6.47 -12.03,13.33 v 0 c 0,6.91 5.27,12.69 12.15,13.33 l 66.26,6.13 c 0,0 -100.11,13.24 -162.54,46.43 -3.03,1.61 -4.87,4.82 -4.87,8.25 v 0 c 0,5.42 4.56,9.72 9.97,9.35 48.05,-3.25 257.82,-16.14 365.59,-1.71 0,0 156.25,19.99 281.81,104.11 z" id="path27" />
					<path class="st5" d="m 840.94,418.23 v 24.69 c 0,0 -82.45,5.86 -128.07,16.32 0,0 287.12,-16.32 476.29,97.52 v -64.35 c 0,0 -97.1,-81.02 -348.22,-74.18 z" id="path29" /> </g>
				<path class="st2" d="M 1278.94,596.52 V 473.61 c 0,0 141.52,-118.25 556.34,-76.31 6.82,0.69 12.03,6.47 12.03,13.33 v 0 c 0,6.91 -5.27,12.69 -12.15,13.33 l -66.26,6.13 c 0,0 100.11,13.24 162.54,46.43 3.03,1.61 4.87,4.82 4.87,8.25 v 0 c 0,5.42 -4.56,9.72 -9.97,9.35 -48.05,-3.25 -257.82,-16.14 -365.59,-1.71 0,0 -156.25,19.99 -281.81,104.11 z" id="path33" />
				<path class="st5" d="m 1652.27,418.23 v 24.69 c 0,0 82.45,5.86 128.07,16.32 0,0 -287.12,-16.32 -476.29,97.52 v -64.35 c 0,0 97.1,-81.02 348.22,-74.18 z" id="path35" />
				<path class="st2" d="m 1251.1,664.33 c 0,0 37,-88.39 181.49,-141.13 110.84,-40.46 235.63,-24.35 328.64,48.26 61.67,48.14 115.22,124.57 119.34,245.36 0,0 1.67,279.02 -298,320.04 0,0 -196.99,23.16 -331.48,-146.49 0,0 -67.65,99.87 -212.65,135.81 -99.85,24.75 -206.32,6.87 -288.79,-54.63 C 686,1024.06 625.8,944.15 622.88,811.23 c 0,0 -7.68,-188.7 171.68,-275.55 79.58,-38.54 171.41,-42.83 255.43,-15.27 74.41,24.41 168.85,69.04 201.11,143.92 z" id="path37" />
				<path class="st6" d="m 1227.79,706.85 c -7.81,-18.8 -46.47,-100.42 -145.13,-144.73 -81.56,-36.63 -175.74,-35.43 -256.79,2.29 -43.23,20.12 -89.34,53.23 -122.12,107.67 -52.63,87.41 -54.15,197.45 -3.34,285.93 34.62,60.28 98.98,121.15 218.66,138.38 0,0 182.18,33.62 332.64,-161.69 0,0 129.34,179.33 306.88,163.88 0,0 164.13,0.03 243.41,-141.72 43.52,-77.8 48.72,-172.14 13.83,-254.18 -30.69,-72.16 -98.47,-151.56 -247.73,-167.65 -14.82,-1.6 -39.16,-1.95 -53.99,-0.4 -28.77,3.02 -57.17,10.08 -83.98,20.95 -36.79,14.91 -70.36,37.25 -98.13,65.66 -12.8,13.09 -24.34,27.39 -34.57,42.57 -5.67,8.41 -10.94,17.09 -15.83,25.98 -5.22,9.49 -9.12,20.05 -15.21,29.01 -7.71,11.33 -20.08,14.75 -29.51,3.49 -3.75,-4.5 -6.84,-10.02 -9.09,-15.44 z" id="path39" />
				<ellipse class="st7" cx="1020.63" cy="832.78998" rx="110.49" ry="107.78" id="ellipse41" />
				<ellipse class="st6" cx="975.71002" cy="782.21002" rx="20.370001" ry="25.67" id="ellipse43" />
				<ellipse class="st7" cx="1463.16" cy="832.78998" rx="110.49" ry="107.78" id="ellipse45" />
				<ellipse class="st6" cx="1418.24" cy="782.21002" rx="20.370001" ry="25.67" id="ellipse47" />
				<path class="st8" d="m 673.11,1068.63 21.76,40.6 c 0,0 167.83,70.31 829.12,45.2 v 135.61 c 0,0 -681.65,31.81 -850.88,-58.59 z" id="path49" />
				<path class="st8" d="m 1552.45,1151.08 128.07,-13.16 c 0,0 -15.9,116.12 20.09,220.76 0,0 39.26,162.75 227.72,288.58 3.51,2.34 4.2,7.21 1.43,10.39 v 0 c -2.4,2.75 -6.52,3.19 -9.44,1 l -47.81,-35.86 c -5.28,-3.96 -12.76,-2.96 -16.81,2.24 v 0 c -4.13,5.29 -3.16,12.93 2.16,17.03 l 37.05,28.56 c 3.52,2.72 3.6,8 0.16,10.82 v 0 c -2.45,2.01 -5.94,2.1 -8.49,0.22 l -47.26,-34.84 c -5.09,-3.75 -12.19,-3.04 -16.44,1.64 v 0 c -4.84,5.33 -4.1,13.66 1.61,18.05 l 35.09,27.02 c 3.41,2.63 3.67,7.68 0.54,10.64 l -0.08,0.08 c -2.48,2.34 -6.28,2.56 -9.01,0.52 l -48.63,-36.31 c -4.75,-3.55 -11.4,-3.02 -15.54,1.23 v 0 c -4.85,4.98 -4.37,13.06 1.04,17.43 l 36.51,29.53 c 3.35,2.71 3.65,7.71 0.65,10.79 v 0 c -2.47,2.54 -6.39,2.96 -9.33,0.97 -31.01,-20.88 -193.75,-127.31 -263.26,-439.63 v -137.7 z" id="path51" />
				<path class="st8" d="m 1837.61,1068.63 -22.88,42.27 c 0,0 -53.37,15.89 -107.7,22.88 l -2.63,137.61 c 0,0 93.03,-10.93 133.21,-41.63 z" id="path53" />
				<path class="st8" d="m 1709.82,1295.46 c 0,0 42.97,-6.54 96.54,-19.38 0,0 67.45,29.98 204.43,30.16 3.95,0.01 6.53,4.18 4.69,7.68 v 0 c -0.93,1.77 -2.79,2.86 -4.79,2.8 l -63.58,-1.82 c -6.46,-0.18 -12.08,4.42 -13.16,10.79 v 0 c -1.31,7.72 4.46,14.83 12.28,15.14 l 47.16,1.86 c 4.31,0.17 7.13,4.57 5.5,8.55 v 0 c -1,2.44 -3.43,3.98 -6.06,3.85 l -58.87,-2.99 c -6.31,-0.32 -11.92,3.99 -13.25,10.17 l -0.09,0.44 c -1.67,7.81 4.09,15.23 12.07,15.56 l 43.9,1.78 c 4.79,0.19 8.11,4.87 6.71,9.46 v 0 c -0.99,3.26 -4.1,5.4 -7.5,5.17 l -62.08,-4.16 c -6.78,-0.45 -12.81,4.27 -13.99,10.96 v 0 c -1.32,7.51 3.91,14.59 11.48,15.52 11.7,1.44 29.51,3.15 48.36,3.19 4.72,0.01 8,4.68 6.38,9.1 v 0 c -0.99,2.71 -3.56,4.5 -6.45,4.45 -24.79,-0.4 -140.17,-5 -223.43,-55.55 -0.02,0.02 -12.3,-24.29 -26.25,-82.73 z" id="path55" />
				<path class="st1" d="m 1107.13,1510.47 c 0,0 -46.74,-20.01 17.22,-56.86 25.11,-14.47 53.12,-23.07 81.9,-26.46 53.78,-6.33 147.62,-7.58 190.32,50.89 7.82,10.71 4.65,26.09 -7.16,32.12 -0.2,0.1 -0.4,0.2 -0.61,0.3 0,0 63.47,18.46 82.3,46.35 6.78,10.04 2.38,23.86 -8.99,28.05 -3.97,1.46 -9.05,2.62 -15.55,3.17 0,0 60.3,50.6 56.23,92.8 -0.73,7.6 -6.28,14.01 -13.79,15.44 -3.69,0.7 -8.47,1.02 -14.68,0.58 0,0 38.89,49.42 36.12,88.85 -1.03,14.64 -15.58,24.61 -29.64,20.43 -2.36,-0.7 -4.89,-1.59 -7.59,-2.7 0,0 30.69,133.37 -26.79,111.61 0,0 -8.93,126.68 -50.78,86.5 0,0 -8.84,43.47 -23.53,64.26 -5.63,7.96 -15.68,11.32 -24.82,7.92 -3.31,-1.23 -7.02,-3.13 -10.92,-6.04 -10.08,-7.51 -23.9,-7.85 -34.33,-0.84 -3.39,2.28 -7,5.23 -10.75,9.06 0,0 -44.64,52.61 -87.06,0 0,0 -23.22,-31.76 -55.72,-5.75 -7.29,5.84 -18.05,4.79 -24.17,-2.27 -7.92,-9.13 -16.68,-27.97 -22.23,-66.36 0,0 -46.88,41.3 -53.57,-83.15 0,0 -44.64,12.28 -32.37,-73.1 l 4.46,-41.3 c 0,0 -84.27,25.11 -1.12,-106.59 0,0 -81.47,4.46 26.23,-107.7 0,0.03 -83.15,-34.01 61.39,-79.21 z" id="path57" />
				<path class="st9" d="m 935.95,2303.82 c 0,0 5.44,167.6 94.72,119.61 0,0 26.23,47.43 75.89,1.12 0,0 46.82,44.51 84.79,-59.22 0.01,0 -152.35,-5.34 -255.4,-61.51 z" id="path59" />
				<path class="st9" d="m 1319.13,2363.68 c 0,0 20.7,94.91 87.67,60.31 0,0 36.27,49.67 73.1,0 0,0 77.33,55.79 93.35,-123.89 0.01,0 -115.78,54.05 -254.12,63.58 z" id="path61" />
				<path class="st10" d="m 966.27,2318.4 c 0,0 4.14,100.29 52.41,86.34 0,0 -17.36,-20.18 -17.19,-73.15 z" id="path63" />
				<path class="st10" d="m 1028.57,2339.74 c 0,0 3.78,65 37.83,80.34 0,0 30.93,-13.12 40.16,-63.76 -0.01,0 -43.83,-7.36 -77.99,-16.58 z" id="path65" />
				<path class="st10" d="m 1130.88,2359.82 c 0,0 -0.59,26.22 -11.48,47.71 0,0 25.21,8.07 44.42,-44.1 0,0 -22.15,-2.15 -32.94,-3.61 z" id="path67" />
				<g id="g75">
					<path class="st10" d="m 1345.21,2361.35 c 0,0 13.45,47.92 44.43,46.63 0,0 -10.96,-24.35 -14.27,-51.32 0,-0.01 -15.78,3.27 -30.16,4.69 z" id="path69" />
					<path class="st10" d="m 1404.8,2351.47 c 0,0 8.14,63.59 39.67,68.62 0,0 33.53,13.26 39.92,-87.54 0,-0.01 -38.35,11.96 -79.59,18.92 z" id="path71" />
					<path class="st10" d="m 1509.96,2324.44 c 0,0 -1.32,40.23 -15.27,83.57 0,0 41.46,4.54 50.73,-96.32 z" id="path73" /> </g>
				<g id="g81">
					<path class="st11" d="m 1252.55,895.78 c 0,0 -66.29,32.09 -85.99,137.28 0,0 56.35,22.6 87.14,168.81 30.79,-146.21 85.02,-168.81 85.02,-168.81 -19.7,-105.2 -86.17,-137.28 -86.17,-137.28 z" id="path77" />
					<path class="st9" d="m 1251.71,927.31 c 0,0 -47.48,32.92 -57.52,97.1 0,0 37.48,20.09 56.41,85.94 18.93,-65.85 57.52,-85.94 57.52,-85.94 -10.05,-64.18 -56.41,-97.1 -56.41,-97.1 z" id="path79" /> </g>
			</g>
		</g>
	</g>
  <style
     type="text/css"
     id="style9">
	.st0{clip-path:url(#SVGID_2_);}
	.st1{fill:#3166A7;}
	.st2{fill:#184C8A;}
	.st3{fill:#6F9FD1;}
	.st4{fill:#A31E22;}
	.st5{fill:#BBBDB6;}
	.st6{fill:#FFFFFF;}
	.st7{fill:#050606;}
	.st8{fill:#CD2028;}
	.st9{fill:#F47A20;}
	.st10{fill:#FBAF40;}
	.st11{fill:#CE6028;}
</style>
</svg>
